<?xml version="1.0" standalone="no"?>
<!DOCTYPE svg PUBLIC "-//W3C//DTD SVG 20010904//EN"
 "http://www.w3.org/TR/2001/REC-SVG-20010904/DTD/svg10.dtd">
<svg version="1.0" xmlns="http://www.w3.org/2000/svg"
 width="1752.000000pt" height="1752.000000pt" viewBox="0 0 1752.000000 1752.000000"
 preserveAspectRatio="xMidYMid meet">
<metadata>
Created by potrace 1.14, written by Peter Selinger 2001-2017
</metadata>
<g transform="translate(0.000000,1752.000000) scale(0.100000,-0.100000)"
fill="#000000" stroke="none">
<path d="M6137 17438 c-4 -46 -16 -171 -28 -278 -19 -162 -22 -250 -22 -520 0
-179 5 -381 12 -450 6 -69 20 -260 31 -425 11 -165 22 -311 25 -325 2 -14 11
-113 20 -220 9 -107 27 -276 40 -374 38 -275 39 -272 -75 -516 -252 -543 -357
-781 -378 -853 -26 -97 2 -240 61 -304 35 -39 168 -71 379 -93 l117 -12 6 -57
c3 -31 12 -103 20 -161 8 -58 16 -139 20 -180 10 -122 59 -497 96 -735 21
-137 59 -323 85 -416 19 -69 20 -67 -112 -261 -461 -677 -1247 -1442 -2154
-2099 -296 -215 -403 -287 -520 -354 -47 -27 -103 -61 -125 -75 -74 -50 -499
-283 -640 -351 -120 -58 -356 -159 -372 -159 -3 0 -2 8 2 18 13 34 24 126 35
290 6 92 21 257 35 367 13 110 26 227 29 260 3 33 13 130 21 215 26 264 46
758 34 831 -11 66 -30 117 -123 331 -31 71 -56 131 -56 136 0 4 -14 24 -31 45
-37 45 -57 46 -192 17 -107 -24 -267 -86 -455 -176 -73 -35 -136 -64 -140 -64
-9 0 -90 -39 -82 -39 34 -2 570 193 658 240 78 41 127 49 171 26 16 -8 45 -54
87 -137 68 -135 107 -240 123 -334 22 -124 7 -408 -44 -831 -8 -71 -20 -201
-25 -290 -27 -449 -32 -527 -40 -610 -14 -148 -50 -321 -71 -344 -26 -28 -28
-45 -4 -46 11 0 20 -4 20 -10 -1 -28 -43 -178 -93 -329 -103 -309 -163 -396
-275 -396 -29 0 -63 6 -77 13 -37 18 -78 109 -91 202 -7 44 -18 89 -24 100
-24 39 -75 211 -89 305 -34 216 -39 382 -21 657 17 242 17 359 4 828 0 26 -2
27 -9 10 -5 -11 -9 -77 -9 -147 -1 -71 -3 -128 -6 -128 -3 0 -25 16 -50 35
-25 19 -63 40 -84 46 -45 13 -52 10 -221 -96 -63 -40 -167 -100 -230 -135 -63
-34 -121 -67 -128 -72 -15 -13 -9 -20 -67 84 -27 48 -53 84 -58 81 -6 -3 -7
-1 -3 5 9 16 -43 104 -56 95 -7 -3 -8 -1 -4 5 4 6 -1 24 -11 39 -48 77 -151
199 -159 190 -3 -3 31 -67 75 -143 43 -77 105 -184 137 -239 56 -99 98 -162
335 -505 345 -500 515 -792 552 -950 33 -138 48 -422 28 -526 -25 -128 -77
-243 -162 -356 -79 -106 -94 -113 -218 -111 -170 3 -226 42 -346 239 -33 54
-103 164 -156 244 -52 80 -119 185 -148 234 -87 144 -293 410 -569 734 -239
281 -288 343 -307 387 -12 31 -18 36 -25 25 -5 -8 -10 -32 -10 -52 0 -28 3
-36 14 -32 9 3 22 -6 32 -23 79 -125 239 -321 468 -576 83 -93 181 -214 219
-269 37 -55 105 -153 151 -217 46 -64 132 -203 190 -309 89 -163 131 -230 224
-361 10 -15 8 -24 -20 -58 -32 -39 -398 -391 -442 -425 -22 -17 -25 -16 -89
26 -37 24 -104 77 -149 118 -115 103 -142 122 -318 233 -85 53 -181 119 -212
146 -31 27 -59 49 -62 49 -3 0 -6 -18 -6 -40 0 -26 4 -40 13 -40 7 0 26 -14
43 -31 29 -31 174 -129 337 -230 49 -30 100 -64 113 -76 l25 -23 -20 -27 c-11
-16 -39 -77 -61 -137 -70 -187 -60 -176 -194 -220 -64 -21 -148 -43 -186 -49
-63 -10 -70 -13 -70 -34 0 -19 4 -22 28 -18 15 2 47 6 72 9 25 3 54 8 63 12
36 14 14 -20 -60 -91 -43 -41 -84 -75 -90 -75 -8 0 -13 -13 -13 -30 0 -18 5
-30 13 -30 19 0 137 125 182 193 30 45 43 57 64 57 94 2 140 21 172 73 18 29
68 182 99 300 7 26 16 47 20 47 4 0 15 -9 26 -21 29 -33 169 -127 215 -145 39
-16 43 -16 76 1 53 29 440 416 484 484 l15 24 39 -21 c46 -23 178 -52 237 -52
22 0 53 8 68 17 28 16 174 227 238 343 60 110 67 257 26 536 -14 96 -24 189
-22 207 l3 32 18 -33 c10 -18 25 -68 33 -110 18 -98 60 -205 91 -234 29 -27
136 -38 183 -18 17 7 33 11 35 8 2 -2 20 -114 40 -248 55 -374 53 -333 13
-382 -19 -24 -76 -101 -127 -171 -86 -119 -167 -220 -233 -292 -29 -31 -35
-45 -18 -45 13 0 -2 -32 -79 -170 -115 -207 -278 -531 -366 -730 -125 -280
-156 -337 -227 -409 -131 -135 -297 -235 -508 -305 -58 -19 -211 -64 -340
-100 -242 -66 -351 -103 -408 -136 -18 -11 -40 -20 -48 -20 -10 0 -14 -13 -14
-50 l0 -50 68 0 c81 0 146 -20 192 -59 l34 -28 -13 -44 c-7 -24 -31 -79 -53
-123 -56 -111 -175 -395 -189 -450 -12 -48 -24 -59 -32 -28 -3 9 -5 -776 -6
-1745 l-1 -1763 2158 0 2159 0 6 173 c4 94 7 209 7 253 0 60 4 85 15 94 26 22
59 4 82 -44 43 -88 173 -428 173 -452 l0 -24 610 0 610 0 0 33 c0 29 27 100
135 362 54 131 114 184 115 102 1 -18 7 -49 14 -70 8 -20 10 -40 5 -43 -5 -3
-9 -90 -9 -195 l0 -189 282 0 c247 0 279 2 262 14 -18 14 -18 15 -1 28 10 7
54 109 98 227 86 232 111 280 136 260 21 -18 46 -71 88 -189 20 -58 52 -147
71 -199 19 -52 34 -105 34 -118 l0 -23 530 0 530 0 0 230 0 230 -332 2 c-315
3 -333 4 -336 22 -2 10 1 23 6 28 7 7 139 10 369 9 197 0 501 -1 676 -1 l318
0 -3 -28 -3 -27 -322 -3 -323 -2 0 -230 0 -230 304 0 303 0 7 80 c15 187 98
316 251 391 84 41 152 58 280 69 187 17 370 -12 499 -77 141 -71 266 -267 266
-415 l0 -48 60 0 60 0 0 93 c0 50 3 170 7 265 6 158 8 172 25 172 17 0 18 -14
18 -265 l0 -265 635 0 635 0 0 259 c0 143 4 262 8 265 5 3 17 3 28 0 18 -5 19
-16 17 -265 l-3 -259 70 0 c64 0 70 2 70 21 0 49 105 195 210 292 281 260 783
273 1086 28 106 -85 234 -260 234 -320 0 -19 5 -21 70 -21 l71 0 -3 260 -3
260 34 0 34 0 -7 -105 c-4 -57 -4 -174 0 -260 l7 -155 387 0 c304 0 387 3 386
13 -1 13 464 467 511 498 33 22 73 25 73 5 0 -8 -15 -26 -32 -41 -69 -56 -467
-459 -462 -467 3 -4 203 -8 444 -8 491 0 441 -8 455 75 4 22 31 128 61 235 31
107 75 267 99 355 69 256 206 709 217 723 6 7 20 12 31 10 27 -4 45 -58 178
-548 61 -223 135 -494 165 -602 30 -109 54 -209 54 -223 l0 -25 760 0 760 0 0
2919 0 2919 -42 4 c-44 5 -575 143 -685 179 -72 24 -147 88 -273 234 -166 193
-248 204 -385 54 -23 -24 -55 -65 -73 -91 -30 -44 -33 -46 -64 -37 -18 4 -100
25 -182 44 -82 20 -185 49 -230 64 -73 24 -81 29 -80 51 1 14 9 115 18 225 66
812 74 2085 21 3300 -24 534 -79 1391 -101 1554 l-6 44 51 -36 c63 -46 66 -35
6 23 -61 60 -58 47 -95 400 -19 185 -50 447 -68 565 -27 190 -24 220 37 360
29 66 76 174 103 240 28 66 51 121 53 123 4 5 30 -435 27 -483 -1 -27 -9 -86
-17 -130 -9 -44 -18 -114 -20 -155 -8 -123 -15 -177 -35 -245 -10 -36 -17 -65
-16 -65 2 0 17 28 34 63 31 62 46 158 51 317 1 30 9 87 18 125 20 93 136 375
148 363 8 -7 55 -333 65 -442 5 -61 15 -145 21 -186 21 -152 22 -179 6 -223
-9 -23 -27 -81 -41 -128 -28 -100 -39 -123 -75 -163 -23 -25 -24 -27 -4 -17
32 16 62 58 74 105 6 22 26 86 44 142 19 55 37 132 41 170 6 50 9 62 14 44 10
-39 22 154 29 487 l6 298 89 -165 c110 -205 131 -237 233 -348 77 -84 81 -90
65 -107 -16 -16 -15 -16 15 -1 32 16 56 40 30 31 -31 -13 -119 221 -192 515
-143 569 -230 1556 -162 1840 42 173 49 305 52 880 3 606 -7 1048 -30 1338 -8
103 -18 262 -22 355 l-6 167 -4912 0 -4912 0 -6 -82z m6306 -1122 c89 -57 155
-106 153 -113 -3 -7 3 -10 15 -8 11 2 17 0 14 -6 -4 -5 -11 -7 -16 -4 -5 4
-11 0 -14 -7 -8 -20 -53 -21 -64 0 -6 9 -11 13 -11 9 0 -7 -102 73 -320 252
-105 86 -107 102 -3 35 48 -31 159 -103 246 -158z m-3462 110 c-7 -8 -60 -45
-119 -82 -190 -121 -574 -376 -699 -466 -68 -48 -123 -85 -123 -82 0 3 -9 -4
-20 -17 l-19 -24 -1 57 c0 50 -2 57 -21 60 -21 3 149 107 356 218 44 24 179
97 300 163 121 67 247 136 280 154 65 36 84 41 66 19z m1754 -240 c6 -51 5
-67 -3 -62 -7 4 -12 2 -12 -5 0 -7 -3 -9 -7 -6 -3 4 -12 2 -19 -4 -9 -8 -12
-6 -9 8 2 10 4 18 5 18 0 0 2 23 4 50 2 28 7 88 12 135 l9 85 6 -75 c3 -41 10
-106 14 -144z m12 -118 c-3 -8 -6 -5 -6 6 -1 11 2 17 5 13 3 -3 4 -12 1 -19z
m143 -908 c0 -27 -3 -30 -31 -30 -27 0 -30 2 -19 15 7 8 17 12 22 9 5 -3 12 3
15 15 8 30 13 26 13 -9z m-4057 -152 l-21 -23 23 -39 c12 -22 31 -43 41 -46
11 -4 -11 -9 -51 -13 -39 -3 -71 -4 -73 -2 -11 10 79 145 96 145 3 0 -4 -10
-15 -22z m9076 -515 c0 -65 5 -170 11 -233 5 -63 10 -135 10 -159 0 -42 -1
-44 -15 -25 -14 18 -14 17 -5 -10 12 -32 10 -105 -2 -112 -4 -3 -8 11 -8 30 0
20 -4 36 -9 36 -4 0 -6 -10 -4 -22 2 -13 0 -34 -5 -48 -8 -20 -9 -12 -7 33 4
49 2 57 -9 48 -8 -7 -12 -21 -8 -33 3 -14 1 -19 -6 -14 -8 5 -12 0 -12 -13 0
-12 4 -21 9 -21 11 0 3 -38 -10 -45 -4 -3 -6 4 -4 15 2 11 -1 20 -6 20 -6 0
-8 4 -5 9 4 5 -2 8 -11 7 -9 -2 -19 -8 -21 -14 -2 -7 -8 -10 -13 -6 -5 3 -10
-1 -10 -8 -5 -53 -10 -72 -23 -87 -9 -10 -16 -24 -16 -32 0 -8 -5 -20 -12 -27
-7 -7 -8 -12 -2 -12 6 0 9 -14 6 -32 l-5 -33 24 20 c13 11 30 29 39 40 8 11
24 30 35 41 12 12 21 32 20 45 -1 13 5 29 14 36 23 17 31 16 24 -4 -6 -16 -5
-16 10 -4 23 18 23 20 -18 -247 -55 -360 -108 -605 -135 -632 -24 -24 -60 -98
-110 -227 -17 -46 -34 -85 -38 -87 -11 -7 -4 727 8 839 8 80 25 144 84 320 41
121 91 290 111 375 20 85 44 178 52 205 15 50 66 185 69 185 1 0 2 -53 3 -117z
m-2 -575 c-3 -8 -6 -5 -6 6 -1 11 2 17 5 13 3 -3 4 -12 1 -19z m-4883 -3 c87
-9 143 -20 148 -27 4 -7 8 -51 8 -97 0 -46 2 -82 4 -80 2 2 6 42 9 88 11 150
18 100 16 -114 0 -116 4 -309 10 -430 6 -121 18 -359 26 -529 8 -170 17 -312
20 -314 11 -11 4 239 -22 853 -11 261 -10 462 2 474 7 6 27 2 60 -15 55 -26
100 -31 109 -11 8 16 -3 -536 -14 -749 -13 -232 -92 -713 -144 -869 -20 -59
-39 -146 -34 -151 3 -2 22 53 43 123 36 122 66 275 101 503 24 157 49 257 93
366 59 146 89 261 107 403 8 69 19 135 24 147 7 17 23 23 87 34 43 7 132 23
198 37 83 16 154 24 230 24 106 0 112 -1 177 -35 37 -20 86 -40 110 -46 62
-15 412 -60 464 -60 l44 0 0 -37 c0 -60 -5 -62 -98 -53 -46 5 -98 11 -115 14
-28 5 -27 4 12 -14 23 -11 74 -23 113 -27 67 -6 69 -7 66 -31 -3 -22 -10 -27
-63 -38 -75 -17 -267 -84 -239 -84 12 0 46 5 75 11 30 6 65 12 79 14 14 2 51
6 83 10 l57 8 0 -41 c0 -43 -31 -235 -55 -345 -26 -115 -75 -257 -126 -366
-60 -127 -41 -117 28 16 85 163 138 340 183 610 12 71 23 130 25 132 2 2 69 9
148 17 79 7 175 20 213 28 38 8 73 11 77 6 5 -4 20 -115 33 -246 24 -239 54
-467 61 -460 2 2 -1 52 -7 112 -5 60 -15 206 -21 324 -6 118 -12 228 -12 245
-2 23 4 32 26 43 16 8 32 10 37 6 4 -5 12 -170 17 -367 14 -489 30 -494 35
-10 3 202 8 376 12 385 4 9 30 24 57 33 30 10 47 21 43 27 -4 7 -2 8 4 4 7 -4
12 -14 12 -22 0 -17 37 -19 43 -1 2 6 6 -21 10 -62 3 -41 10 -77 15 -80 43
-27 -12 -407 -108 -751 -26 -96 -51 -197 -55 -225 -4 -27 -14 -66 -23 -85 -25
-58 -41 -100 -76 -205 -39 -116 -123 -319 -173 -420 -68 -135 -197 -316 -312
-439 l-46 -49 38 28 c51 38 182 196 261 315 228 344 366 755 534 1590 l9 45 7
-40 c26 -147 48 -241 132 -579 52 -208 95 -395 96 -415 1 -43 -36 -126 -178
-401 -164 -317 -312 -551 -602 -955 -255 -353 -354 -478 -517 -650 l-57 -60
17 -49 c17 -48 37 -213 50 -399 4 -54 10 -96 13 -93 3 4 20 48 37 99 69 197
193 456 359 748 92 162 175 305 186 319 l18 25 5 -25 c10 -48 49 -346 60 -448
8 -76 8 -142 -1 -250 -25 -305 -44 -731 -38 -842 6 -113 42 -398 71 -555 8
-44 28 -192 44 -330 66 -554 83 -654 176 -1021 59 -232 72 -269 112 -305 l26
-24 -26 40 c-14 22 -35 76 -46 120 -22 90 -95 419 -106 478 -3 21 -9 45 -12
53 -3 8 10 0 28 -17 43 -40 97 -80 284 -209 246 -170 305 -213 492 -363 300
-240 354 -272 687 -414 160 -68 301 -131 314 -139 26 -17 26 -10 -14 -355 -26
-229 -40 -303 -57 -317 -16 -13 -82 -26 -322 -62 -420 -64 -613 -132 -955
-338 -193 -116 -524 -323 -535 -335 -23 -23 218 111 455 253 457 275 558 311
1135 401 77 12 155 28 174 35 41 17 48 12 33 -21 -7 -14 -19 -85 -27 -158 -8
-73 -18 -145 -21 -162 -8 -39 -193 -317 -282 -424 -39 -46 -135 -172 -213
-280 -169 -232 -258 -345 -394 -501 -183 -208 -363 -430 -889 -1095 -66 -83
-205 -238 -311 -345 -345 -352 -549 -568 -771 -820 -135 -153 -517 -600 -627
-733 -48 -59 -94 -107 -102 -107 -9 0 -32 11 -53 24 -20 13 -103 60 -183 105
-80 45 -204 125 -275 178 -136 102 -689 491 -934 658 -242 164 -342 241 -900
684 -318 252 -355 286 -529 474 -486 528 -807 916 -1023 1235 -83 123 -219
310 -300 416 -167 214 -427 569 -533 725 -38 57 -135 195 -215 307 -150 210
-353 502 -357 513 -2 3 76 7 173 8 202 2 540 26 694 49 293 43 359 66 549 186
51 33 150 89 220 125 248 128 554 318 861 533 184 129 350 240 359 240 16 0
-9 -104 -39 -156 -34 -60 -35 -73 -16 -128 12 -35 15 -37 23 -20 40 78 78 374
108 839 15 241 33 400 60 525 21 101 49 277 79 504 14 104 28 191 30 193 3 3
15 -19 28 -49 12 -29 36 -78 52 -108 54 -102 278 -454 296 -465 5 -3 -19 52
-55 123 -155 311 -198 475 -212 807 -7 177 4 274 53 463 86 332 206 544 417
733 137 123 141 127 77 83 -82 -57 -250 -229 -307 -314 -58 -86 -115 -196
-151 -290 -38 -100 -92 -301 -92 -342 0 -21 -4 -38 -9 -38 -11 0 -554 551
-695 705 -234 256 -478 586 -579 783 -25 48 -64 146 -86 217 -40 129 -135 515
-128 522 3 2 23 -21 45 -51 123 -163 385 -396 563 -501 104 -62 280 -152 339
-175 54 -20 54 -20 30 -1 -14 11 -75 45 -135 75 -158 79 -284 157 -405 250
-123 95 -378 347 -414 409 -27 46 -57 154 -75 272 -45 293 -82 545 -91 625 -5
52 -13 109 -16 125 -15 75 19 -6 84 -200 105 -314 220 -572 350 -786 157 -261
246 -382 358 -489 54 -52 53 -50 -23 41 -107 129 -245 338 -411 625 -81 140
-77 111 -77 559 0 220 5 409 9 420 5 11 8 28 7 38 -2 15 7 14 80 -13 99 -36
109 -44 47 -38 -27 3 -48 4 -48 2 0 -1 32 -13 70 -25 39 -12 70 -27 70 -34 0
-6 -12 -18 -27 -25 -44 -22 -83 -51 -83 -60 0 -5 16 0 35 11 24 15 44 19 63
15 18 -5 23 -4 13 3 -12 8 -12 11 1 24 16 17 19 17 296 -15 198 -22 193 -22
332 15 52 13 145 30 205 37 114 12 245 36 254 47 5 5 -47 -1 -119 -13 -65 -12
-477 -22 -525 -14 l-40 7 45 3 c52 3 46 4 -75 20 -151 19 -156 19 -150 10 3
-6 27 -16 53 -24 51 -16 45 -18 -33 -17 -132 4 -266 38 -410 107 l-55 25 0 57
c0 31 3 74 6 95 6 32 10 37 33 37 16 0 54 -20 94 -50 83 -60 142 -83 284 -109
165 -32 272 -41 463 -41 166 0 272 9 314 26 13 5 17 4 12 -4 -11 -19 124 26
222 73 l94 45 153 0 c85 0 156 -3 158 -7 3 -5 -12 -84 -34 -177 -39 -168 -46
-234 -13 -117 9 34 19 59 21 57 3 -3 19 10 36 27 34 35 34 34 -13 -71 -18 -40
-35 -70 -38 -67 -4 3 -27 -56 -52 -132 -167 -497 -235 -699 -289 -852 -34 -96
-60 -176 -58 -177 1 -2 13 19 27 47 13 28 50 78 83 112 141 146 241 277 410
532 115 174 180 305 267 535 94 249 101 261 137 228 l25 -23 -17 35 -17 36
103 169 c56 94 126 216 156 273 36 67 60 102 71 102 10 0 80 -7 156 -15z
m-844 -20 c0 -19 -14 -65 -26 -83 -1 -2 -11 1 -21 6 -22 12 -66 86 -56 96 3 3
28 6 55 6 44 0 48 -2 48 -25z m71 -29 c-12 -26 -27 -46 -36 -46 -18 0 -19 7
-4 49 9 27 46 56 57 46 1 -1 -6 -23 -17 -49z m-331 -31 c41 -14 110 -40 153
-57 67 -28 78 -36 74 -53 -46 -195 -57 -243 -57 -262 0 -12 -4 -24 -9 -27 -10
-6 -311 67 -361 88 -48 20 -182 33 -530 51 -346 18 -420 24 -420 34 0 13 64
38 155 61 85 21 103 22 295 16 185 -7 277 -14 365 -31 49 -10 6 12 -61 31 -38
10 -121 19 -229 23 l-170 6 255 62 c341 84 326 81 401 82 46 1 88 -7 139 -24z
m1844 -35 c49 -6 110 -16 134 -22 38 -9 42 -12 26 -22 -11 -5 -61 -9 -114 -8
-52 1 -111 -2 -130 -8 -26 -7 -10 -8 66 -4 113 5 142 0 122 -23 -23 -29 -232
-123 -272 -123 -7 0 -10 37 -9 112 1 62 2 115 2 117 1 2 20 1 44 -2 23 -3 82
-11 131 -17z m-1110 -25 c-9 -34 -84 -247 -101 -290 -29 -70 -30 -70 -93 8
-31 40 -74 88 -95 107 -57 54 -59 62 -29 122 41 82 31 78 185 75 133 -2 138
-3 133 -22z m-265 -232 c136 -136 132 -119 73 -265 -122 -301 -242 -541 -372
-746 -146 -229 -346 -485 -357 -455 -5 14 36 145 112 358 31 88 77 229 101
313 43 150 220 612 243 635 6 6 11 19 11 30 0 10 16 56 35 103 19 46 35 91 35
99 0 32 35 11 119 -72z m1156 -127 c-11 -170 -59 -393 -100 -466 -18 -32 -18
-27 0 105 18 140 34 360 27 403 -4 32 -4 32 37 32 l41 0 -5 -74z m1800 27 c-4
-21 -9 -41 -11 -45 -7 -11 -111 -56 -165 -72 -60 -18 -206 -39 -224 -33 -9 4
-10 22 -3 73 5 38 11 70 12 71 1 2 67 8 147 14 79 5 162 14 184 18 69 15 68
15 60 -26z m-3155 -5 c0 -21 -6 -22 -49 -7 -42 15 -39 24 9 24 32 0 40 -3 40
-17z m3358 -26 c-2 -9 -32 -24 -78 -39 -41 -12 -76 -23 -77 -23 -2 0 -3 11 -3
25 0 34 42 55 108 53 41 -1 52 -4 50 -16z m1946 -54 c-20 -137 -100 -422 -163
-581 l-38 -97 -11 72 c-6 40 -17 107 -23 148 -12 75 -12 76 18 140 17 36 47
99 66 140 19 41 56 99 81 129 26 29 51 62 57 72 16 30 20 22 13 -23z m-5854
22 c-8 -5 -26 -10 -40 -10 -20 0 -22 2 -10 10 8 5 26 10 40 10 20 0 22 -2 10
-10z m518 -17 c-5 -29 -57 -20 -58 10 0 4 14 7 31 7 24 0 30 -4 27 -17z
m-2264 -60 c-3 -32 1 -123 10 -203 66 -618 86 -755 151 -1065 38 -181 139
-569 186 -714 39 -120 51 -185 33 -170 -15 12 -138 260 -209 419 -71 162 -259
670 -305 826 -22 76 -43 164 -47 195 -8 80 10 192 72 434 29 116 56 233 60
260 9 69 12 75 35 75 18 0 19 -5 14 -57z m1586 -3 c-8 -5 -19 -10 -25 -10 -5
0 -3 5 5 10 8 5 20 10 25 10 6 0 3 -5 -5 -10z m4277 -87 c-2 -16 -4 -5 -4 22
0 28 2 40 4 28 2 -13 2 -35 0 -50z m2096 -363 c2 -179 2 -386 -2 -460 -6 -133
-6 -134 -14 -65 -21 180 -38 301 -61 425 -38 204 -42 246 -23 253 17 6 21 21
58 182 l23 100 7 -55 c4 -30 9 -201 12 -380z m-5741 388 c-8 -8 -9 -4 -5 13 4
13 8 18 11 10 2 -7 -1 -18 -6 -23z m5188 -92 c-43 -129 -46 -131 -60 -45 -6
41 -12 81 -13 88 -1 9 14 20 38 27 66 20 66 20 35 -70z m-965 -20 c44 -8 130
-29 190 -46 161 -46 185 -51 196 -45 22 14 6 -80 -82 -485 -46 -211 -173 -739
-220 -910 -17 -63 -60 -209 -96 -325 -96 -305 -92 -275 -50 -445 48 -189 97
-293 176 -369 53 -51 176 -129 186 -119 3 2 -23 24 -56 48 -114 83 -164 156
-179 261 -12 83 4 325 29 439 68 313 122 505 195 686 56 140 119 274 129 274
4 0 7 -28 7 -62 1 -232 88 -597 190 -797 10 -21 46 -73 79 -117 99 -131 126
-158 59 -57 -78 115 -115 233 -128 413 -8 111 4 455 16 469 5 6 16 -8 104
-130 42 -59 112 -137 179 -199 127 -118 110 -68 136 -415 29 -389 34 -459 49
-730 52 -913 66 -1387 66 -2215 0 -712 -8 -1007 -40 -1460 -27 -389 -31 -440
-41 -440 -4 0 -29 9 -56 21 -26 12 -142 57 -258 100 -314 119 -370 153 -684
408 -85 69 -211 171 -280 227 -154 123 -277 251 -377 392 -117 165 -145 232
-213 507 -49 196 -91 388 -91 412 0 2 30 -27 68 -65 149 -153 365 -257 558
-269 107 -7 142 11 39 20 -89 7 -165 46 -240 121 -126 128 -260 458 -330 810
-9 43 -13 81 -10 84 3 3 5 -1 5 -10 0 -23 85 -192 132 -261 92 -135 204 -225
341 -275 79 -29 223 -59 233 -49 3 2 -12 8 -33 11 -110 20 -274 98 -371 177
-114 92 -242 294 -291 457 -12 40 -25 71 -30 68 -12 -8 -29 105 -46 304 -8
102 -17 208 -20 235 -6 66 11 37 20 -35 19 -151 119 -442 196 -572 22 -38 42
-68 44 -68 3 0 -5 24 -17 53 -11 28 -23 66 -25 82 -8 52 -13 62 -23 45 -9 -13
-10 -13 -11 0 -1 8 -1 21 0 28 1 7 -5 20 -14 29 -9 8 -14 22 -11 30 3 8 2 12
-3 9 -5 -3 -11 4 -14 17 -3 12 -13 49 -22 82 -9 33 -20 76 -25 95 -5 19 -26
123 -46 230 l-37 195 6 440 c4 249 11 458 17 482 5 24 64 132 129 241 124 205
274 487 311 582 12 30 28 69 35 85 7 17 19 48 26 70 l13 40 7 -30 c68 -283
101 -456 109 -565 12 -155 11 -338 0 -365 -9 -20 -9 -20 -9 0 -1 24 -43 154
-70 217 -35 82 -61 196 -60 266 0 37 8 136 18 220 9 83 14 152 10 152 -15 0
-45 -158 -89 -455 -17 -115 -41 -255 -54 -310 -174 -728 -189 -802 -227 -1131
-18 -158 -20 -213 -13 -334 4 -80 8 -170 8 -202 1 -31 4 -54 8 -52 3 2 8 -4
11 -13 2 -10 2 54 -1 142 -5 151 4 285 39 600 11 101 40 255 49 255 3 0 15
-37 28 -81 47 -170 130 -305 286 -464 35 -36 69 -65 75 -65 6 0 -13 24 -42 53
-44 43 -61 72 -99 162 -86 206 -103 342 -95 755 4 236 11 334 31 490 14 107
27 202 29 210 2 8 13 -23 25 -70 11 -47 42 -150 68 -230 28 -86 46 -163 46
-190 0 -52 -31 -147 -79 -242 -18 -38 -31 -68 -29 -68 2 0 17 21 34 48 127
201 141 272 148 762 7 471 6 619 -7 910 -6 146 -10 387 -8 536 5 296 8 311 58
300 14 -4 62 -13 106 -20z m-5520 -16 c8 -13 -5 -13 -25 0 -13 8 -13 10 2 10
9 0 20 -4 23 -10z m-2288 -403 c2 -363 20 -712 59 -1134 8 -86 -7 -99 -24 -20
-54 241 -164 1033 -182 1302 -5 88 -13 172 -16 187 l-5 27 78 4 c43 1 80 4 83
5 3 1 6 -166 7 -371z m8548 237 c8 -4 23 -20 31 -36 14 -27 14 -32 -3 -58 -62
-97 -296 -343 -449 -473 l-22 -18 15 58 c29 117 41 158 42 146 5 -61 168 97
298 290 36 53 67 97 69 97 1 0 10 -3 19 -6z m-1071 -23 c9 -14 45 -221 66
-381 10 -80 28 -190 39 -245 39 -201 53 -380 26 -341 -5 8 -17 24 -25 35 -8
12 -21 19 -28 16 -16 -6 -25 17 -52 132 -24 103 -51 196 -60 203 -6 5 -60 226
-79 320 -15 81 -21 171 -10 165 5 -4 9 9 9 28 0 22 5 34 13 33 6 0 12 3 12 7
0 11 46 36 67 37 9 0 19 -4 22 -9z m2107 -60 c6 10 9 8 10 -11 3 -34 4 -41 17
-73 17 -41 23 -79 10 -71 -6 4 -8 -2 -4 -17 3 -13 3 -18 0 -11 -3 6 -10 10
-15 7 -5 -4 -6 2 -2 11 4 11 2 15 -4 11 -6 -4 -22 17 -38 51 -15 31 -34 70
-42 87 -14 29 -14 29 4 14 21 -19 43 -14 44 9 1 14 2 13 6 -2 4 -15 7 -16 14
-5z m-900 -134 c60 -114 58 -126 -80 -403 -61 -123 -116 -224 -121 -224 -13 0
-15 -20 19 203 32 209 72 402 107 516 7 22 26 -1 75 -92z m-8196 -16 c59 -54
89 -78 81 -63 -4 7 13 -1 39 -17 25 -16 57 -28 70 -26 14 1 22 -1 20 -6 -3 -4
1 -11 8 -16 7 -4 21 -30 31 -58 81 -221 170 -430 187 -441 13 -7 12 -5 -16 65
-85 208 -175 531 -160 570 6 14 8 13 22 -4 8 -11 28 -47 45 -80 81 -158 278
-395 329 -395 16 0 31 -11 44 -31 16 -24 26 -29 48 -26 31 4 36 0 39 -37 1
-14 5 -26 9 -26 4 0 5 -8 2 -19 -3 -10 2 -21 10 -24 11 -4 15 -19 13 -56 -1
-28 -5 -54 -9 -57 -7 -8 195 -405 331 -649 125 -224 152 -279 232 -475 106
-258 177 -417 205 -457 38 -57 30 -27 -24 88 -27 57 -77 181 -111 274 -34 94
-68 186 -76 205 -13 32 -13 33 2 15 14 -19 16 -19 28 -2 7 9 17 17 21 17 5 0
6 -3 2 -6 -3 -3 3 -16 15 -28 11 -11 29 -40 40 -64 11 -23 33 -56 49 -73 57
-61 318 -517 391 -683 30 -68 101 -277 95 -282 -1 -1 -60 72 -132 163 -177
224 -248 303 -326 362 -36 27 -91 78 -121 113 -106 120 -369 481 -440 602 -39
66 -136 216 -214 331 -78 116 -161 251 -184 300 -137 288 -185 374 -203 356
-7 -7 -5 -38 7 -108 21 -116 38 -362 32 -453 -3 -36 -8 -108 -11 -160 -12
-180 -59 -520 -70 -508 -5 5 -41 183 -60 298 -39 233 -111 516 -185 735 -51
149 -100 326 -109 389 -9 63 1 129 24 160 14 19 15 19 36 0 12 -10 40 -42 63
-70 118 -146 229 -274 233 -270 3 3 -29 53 -71 112 -42 58 -98 147 -126 198
-72 130 -118 202 -178 275 -77 96 -63 120 23 42z m-384 -151 c31 -52 61 -108
67 -125 22 -55 33 -169 39 -395 7 -262 2 -287 -74 -415 l-48 -80 -7 50 c-30
211 -64 1095 -41 1070 5 -5 34 -53 64 -105z m8654 -175 c4 -44 17 -172 30
-285 14 -113 27 -243 30 -290 3 -47 8 -107 9 -134 5 -66 -10 -48 -63 78 -56
132 -97 284 -117 427 l-16 117 51 106 c28 58 51 111 52 118 2 28 18 -62 24
-137z m-497 -57 c-27 -90 -72 -217 -100 -283 -28 -66 -68 -163 -90 -215 -64
-153 -160 -450 -197 -610 -25 -106 -41 -270 -41 -414 -1 -135 -9 -127 -51 55
-41 177 -38 201 51 474 112 342 135 426 216 795 21 98 48 165 82 202 34 38
168 158 176 158 2 0 -19 -73 -46 -162z m360 -65 c-6 -22 15 -189 34 -267 24
-103 56 -186 125 -319 l49 -95 -40 28 c-74 50 -197 186 -299 326 -31 44 -36
57 -30 85 3 19 21 50 38 70 18 20 45 58 60 85 42 73 55 94 60 94 3 0 4 -3 3
-7z m-8274 -46 c12 12 -23 -127 -52 -206 -14 -40 -17 -42 -29 -25 -15 20 -9
88 8 110 5 6 10 34 10 62 1 31 8 59 18 71 16 20 16 20 26 0 6 -11 15 -16 19
-12z m207 -297 c86 -288 217 -856 249 -1081 10 -69 0 -155 -34 -286 -29 -112
-15 -109 22 4 19 59 74 291 106 454 8 41 22 140 31 220 9 79 20 153 24 163 7
18 10 16 33 -15 61 -79 136 -211 160 -280 53 -149 108 -355 108 -401 0 -74
-37 -285 -71 -404 -17 -60 -33 -124 -34 -141 -3 -32 -37 -97 -60 -118 -7 -5
-22 -28 -34 -50 l-23 -40 52 50 c127 124 238 334 334 633 56 174 77 263 77
320 1 23 5 40 10 36 5 -3 32 -38 59 -79 67 -99 173 -236 300 -386 111 -132
157 -216 214 -395 57 -176 146 -700 146 -861 0 -60 -13 -99 -42 -130 -12 -13
-17 -23 -10 -23 6 0 24 17 41 37 50 61 83 197 100 415 7 76 14 145 18 154 11
29 213 -364 238 -463 46 -186 64 -732 31 -948 -28 -180 -56 -305 -77 -347 -39
-76 -175 -134 -262 -111 -53 15 -61 8 -14 -12 89 -37 210 -4 294 80 60 61 128
163 168 253 15 34 30 60 32 58 9 -8 -27 -160 -63 -271 -46 -141 -142 -330
-208 -408 -41 -50 -45 -57 -20 -40 93 66 196 222 271 408 l24 60 -6 -95 c-3
-52 -8 -167 -11 -255 -4 -88 -11 -165 -16 -172 -5 -7 -42 -30 -82 -52 -80 -44
-205 -127 -391 -261 -67 -48 -176 -117 -243 -153 -130 -71 -213 -124 -382
-247 -354 -256 -571 -342 -965 -384 -124 -13 -236 -22 -695 -54 -63 -5 -120
-5 -126 0 -6 5 -32 44 -58 88 -25 44 -75 124 -110 179 l-65 99 -153 -70 c-84
-39 -189 -90 -233 -113 -82 -44 -311 -143 -377 -164 -31 -10 -79 -8 -265 11
-216 21 -270 23 -1023 24 -437 0 -926 6 -1086 13 -160 6 -321 9 -358 7 -77 -6
-78 -5 -91 94 -4 30 -18 111 -31 178 -16 83 -21 130 -14 141 15 28 187 189
243 227 59 39 161 73 424 138 319 80 441 94 749 87 88 -2 166 -1 172 3 26 16
-2 242 -42 350 -43 115 -135 238 -211 286 -36 22 -259 80 -433 111 -117 22
-131 22 -265 10 -78 -7 -167 -15 -197 -17 -30 -3 -108 -12 -172 -19 -64 -8
-133 -15 -153 -15 l-37 0 6 38 c10 55 37 135 50 149 6 6 85 42 176 79 284 117
590 277 885 461 302 189 387 245 525 346 52 39 118 87 145 107 449 325 1007
800 1372 1168 136 137 413 448 532 597 107 134 252 336 306 426 20 32 37 59
39 59 1 0 3 -26 4 -57 5 -139 212 -736 347 -1005 62 -121 230 -396 262 -428
21 -20 16 -11 -65 115 -139 215 -301 592 -422 980 -17 55 -35 108 -40 117 -6
10 -10 27 -10 37 0 11 -4 22 -9 25 -4 3 -14 32 -21 64 l-12 58 41 67 c133 218
230 487 287 797 l18 95 13 -45 c7 -25 45 -151 84 -280z m7076 -32 c-3 -8 -6
-5 -6 6 -1 11 2 17 5 13 3 -3 4 -12 1 -19z m-7497 -495 c0 -2 -5 -13 -11 -24
-13 -24 -29 -16 -29 16 0 18 4 22 20 18 11 -3 20 -7 20 -10z m1160 -123 c13
-9 88 -124 102 -155 7 -16 23 -46 36 -65 21 -31 23 -42 18 -102 -6 -71 -59
-287 -96 -398 -24 -71 -149 -333 -174 -365 -18 -23 -21 -31 36 120 54 145 78
304 78 510 0 99 -5 221 -9 270 -23 221 -23 231 -10 210 7 -11 15 -22 19 -25z
m6008 -665 c-2 -25 -7 -45 -12 -45 -4 0 -6 -6 -3 -13 3 -8 1 -20 -4 -28 -7
-11 -9 -9 -9 8 0 24 21 123 27 123 2 0 2 -20 1 -45z m62 5 c0 -5 -2 -10 -4
-10 -3 0 -8 5 -11 10 -3 6 -1 10 4 10 6 0 11 -4 11 -10z m-7 -178 l5 -153 -23
27 c-12 14 -28 23 -34 20 -7 -4 -11 1 -11 13 0 12 -4 21 -9 21 -6 0 -6 -12 -1
-30 5 -16 5 -30 1 -30 -20 0 -38 129 -25 178 11 39 24 23 20 -24 -5 -46 0 -74
13 -74 4 0 8 6 9 13 1 10 7 42 11 55 1 1 1 5 2 10 0 4 5 12 10 19 7 8 4 13
-10 18 -24 7 -26 22 -6 49 8 10 11 24 8 30 -4 6 1 5 10 -3 15 -12 17 -11 17 4
0 10 2 16 4 14 2 -2 6 -73 9 -157z m-5197 -234 c24 -31 44 -60 44 -63 0 -4 13
-22 29 -40 34 -39 51 -105 55 -215 4 -106 -10 -298 -23 -313 -6 -8 -9 -17 -6
-20 3 -4 2 -5 -1 -2 -4 2 -8 21 -9 41 -1 22 -9 42 -20 50 -13 10 -24 50 -42
156 -13 79 -35 181 -48 228 -13 47 -32 112 -41 145 -10 33 -30 79 -46 103 -15
24 -35 57 -44 75 -14 27 -7 23 46 -28 34 -33 82 -86 106 -117z m5234 -46 c0
-15 -2 -15 -10 -2 -13 20 -13 33 0 25 6 -3 10 -14 10 -23z m32 -156 c3 3 18
-20 33 -51 15 -30 25 -58 23 -61 -9 -8 -59 76 -52 88 4 7 3 8 -4 4 -6 -4 -16
4 -23 16 -11 20 -10 21 3 11 8 -7 17 -10 20 -7z m-5062 -56 c0 -10 -6 -20 -12
-23 -10 -3 -10 -9 -2 -23 6 -11 8 -28 4 -39 -11 -28 -18 -5 -22 67 -3 51 -1
55 15 47 9 -5 17 -18 17 -29z m100 -103 c139 -184 263 -589 294 -962 6 -68 6
-70 -41 125 -31 131 -82 264 -131 344 -20 34 -35 67 -34 75 2 7 -1 10 -6 7
-14 -9 -156 274 -154 306 2 18 -5 32 -18 40 -20 13 -26 42 -14 73 6 14 9 12
24 -10 17 -25 18 -25 23 -6 3 12 1 23 -4 26 -12 8 1 37 15 32 6 -2 27 -24 46
-50z m-203 -489 c-3 -8 -6 -5 -6 6 -1 11 2 17 5 13 3 -3 4 -12 1 -19z m-6973
-125 c34 -23 59 -47 63 -62 3 -13 3 -112 -1 -220 -18 -550 -18 -684 -2 -840 9
-84 15 -156 12 -158 -3 -3 -14 12 -24 34 -11 21 -58 80 -105 131 -52 57 -145
183 -240 325 -137 205 -327 510 -327 526 0 7 239 158 359 226 151 87 183 91
265 38z m1691 -1278 c232 -41 305 -72 389 -166 89 -99 135 -225 142 -386 2
-69 0 -104 -8 -109 -11 -7 -25 -8 -268 -19 -158 -7 -335 -21 -440 -36 -162
-23 -538 -127 -602 -167 -18 -12 -82 -71 -142 -131 -60 -61 -110 -110 -111
-109 -1 2 -7 44 -14 93 -6 50 -26 176 -43 282 -25 149 -29 197 -21 215 23 49
93 267 109 341 24 116 35 124 174 143 63 8 180 26 260 39 190 32 187 32 321
34 84 1 152 -6 254 -24z m-1049 -1483 c9 -45 15 -84 12 -87 -2 -2 -42 -7 -88
-11 -47 -3 -109 -15 -138 -25 -61 -20 -142 -35 -142 -25 0 4 42 60 93 124 51
64 110 142 131 172 22 30 49 65 60 78 l20 23 18 -83 c9 -46 25 -120 34 -166z
m13254 -281 c101 -45 201 -87 222 -93 21 -6 38 -13 38 -15 0 -4 -178 -220
-249 -303 l-48 -55 -122 -29 c-67 -15 -124 -26 -127 -24 -2 3 12 123 31 269
19 145 35 281 35 303 0 47 -19 51 220 -53z m-70 -507 c0 -4 -24 -37 -53 -73
-29 -36 -88 -110 -131 -164 -43 -54 -80 -96 -83 -94 -2 3 3 42 11 88 8 46 18
108 21 137 6 46 10 53 33 58 15 3 63 16 107 29 90 27 95 28 95 19z"/>
<path d="M12018 13523 c39 -2 105 -2 145 0 39 1 7 3 -73 3 -80 0 -112 -2 -72
-3z"/>
<path d="M12171 13406 c14 -8 70 -24 126 -35 55 -11 135 -34 178 -51 44 -17
102 -33 130 -36 50 -4 49 -4 -25 19 -41 13 -104 37 -140 54 -40 19 -95 35
-145 41 -44 6 -96 14 -115 17 l-35 6 26 -15z"/>
<path d="M11988 13357 c-21 -6 -38 -15 -38 -20 0 -12 55 -3 100 16 l35 15 -30
0 c-16 0 -47 -5 -67 -11z"/>
<path d="M12171 13291 c-22 -14 4 -22 49 -15 22 4 43 11 46 15 7 12 -77 11
-95 0z"/>
<path d="M9150 13180 l-45 -7 40 -1 c22 0 51 4 65 8 32 10 5 10 -60 0z"/>
<path d="M9596 13180 c6 -6 21 -6 39 -1 30 9 30 9 -9 10 -26 1 -37 -2 -30 -9z"/>
<path d="M9558 13173 c7 -3 16 -2 19 1 4 3 -2 6 -13 5 -11 0 -14 -3 -6 -6z"/>
<path d="M8998 13043 c7 -3 16 -2 19 1 4 3 -2 6 -13 5 -11 0 -14 -3 -6 -6z"/>
<path d="M9048 13033 c6 -2 18 -2 25 0 6 3 1 5 -13 5 -14 0 -19 -2 -12 -5z"/>
<path d="M10658 12978 c-69 -195 -91 -266 -118 -384 -17 -75 -29 -141 -28
-146 2 -6 19 43 37 108 41 146 108 354 121 374 7 12 12 7 24 -21 17 -41 69
-210 117 -383 18 -65 35 -113 37 -106 7 20 -10 164 -17 151 -7 -11 -35 83 -60
199 -9 40 -32 101 -83 218 l-15 34 -15 -44z"/>
<path d="M10791 12725 c0 -5 8 -37 19 -70 11 -33 17 -44 13 -25 -6 38 -31 111
-32 95z"/>
<path d="M10501 12414 c0 -11 3 -14 6 -6 3 7 2 16 -1 19 -3 4 -6 -2 -5 -13z"/>
<path d="M11246 12241 c-4 -46 -5 -86 -2 -88 6 -6 19 143 14 159 -3 7 -8 -25
-12 -71z"/>
<path d="M13518 12180 c-1 -33 0 -60 5 -60 4 0 7 27 7 60 0 77 -7 77 -12 0z"/>
<path d="M10429 12065 c-1 -22 -3 -53 -4 -69 -4 -59 100 -285 197 -430 67 -98
183 -248 227 -291 73 -70 43 -18 -56 97 -200 234 -343 503 -343 647 0 68 -19
108 -21 46z"/>
<path d="M10931 11525 c-2 -191 -20 -372 -35 -358 -5 4 -7 1 -3 -8 35 -100 33
-129 -9 -129 -35 0 -247 -50 -240 -57 2 -3 39 2 82 11 42 9 109 18 148 21 39
3 101 11 138 17 49 8 101 8 204 -1 365 -31 668 -152 938 -372 123 -100 146
-116 81 -54 -229 217 -510 360 -835 426 -91 18 -146 23 -265 22 -82 0 -161 -2
-175 -4 -22 -4 -25 0 -27 36 -2 22 3 99 12 172 17 149 20 304 6 319 -6 5 -12
38 -14 74 -2 36 -4 -16 -6 -115z"/>
<path d="M9440 11607 c-25 -23 -67 -62 -95 -85 -41 -36 -44 -40 -15 -23 19 11
64 50 100 86 72 73 79 87 10 22z"/>
<path d="M10867 11213 c10 -18 20 -28 22 -22 2 6 -6 21 -19 33 l-21 21 18 -32z"/>
<path d="M12395 8429 c-55 -56 -374 -312 -458 -367 -89 -57 -228 -123 -342
-161 -55 -19 -75 -28 -50 -25 146 21 389 135 541 254 33 26 71 51 84 55 43 14
298 285 268 285 -2 0 -22 -19 -43 -41z"/>
<path d="M12783 8405 c0 -22 2 -30 4 -17 2 12 2 30 0 40 -3 9 -5 -1 -4 -23z"/>
<path d="M9660 8373 c-1 -39 139 -481 295 -934 109 -313 144 -432 277 -934 29
-110 54 -191 57 -180 2 12 11 -5 22 -45 43 -145 103 -330 106 -326 3 3 -28
119 -97 356 -23 79 -81 295 -119 440 -53 206 -143 508 -176 595 -15 39 -60
168 -100 288 -41 120 -78 223 -83 230 -5 7 -22 53 -37 102 -39 129 -126 387
-136 405 -5 8 -9 10 -9 3z"/>
<path d="M12760 8313 c0 -10 -25 -130 -55 -268 -137 -621 -291 -1510 -385
-2230 -53 -408 -85 -586 -155 -865 -110 -443 -232 -959 -270 -1140 -49 -236
-75 -290 -169 -352 -80 -54 -142 -35 -452 140 -190 106 -422 219 -369 180 16
-13 90 -57 165 -98 74 -42 217 -122 317 -179 180 -102 231 -121 286 -107 13 3
68 47 122 96 54 50 152 137 219 193 66 56 155 131 197 167 41 36 138 117 215
180 76 63 195 163 264 221 280 240 350 298 433 358 48 35 86 66 83 68 -8 8
-91 -40 -350 -205 -371 -236 -473 -286 -525 -253 -21 14 -28 137 -36 637 -7
495 -6 524 56 974 11 80 31 228 45 330 47 343 89 602 165 1015 16 88 43 238
60 333 16 96 45 240 64 320 32 140 76 359 89 449 3 24 2 44 -4 48 -5 3 -10 -2
-10 -12z"/>
<path d="M10100 8231 c39 -50 171 -173 178 -166 3 2 11 -3 19 -13 10 -11 12
-12 8 -2 -4 10 -2 9 8 -2 8 -10 17 -15 20 -11 4 3 7 2 7 -4 0 -6 37 -25 83
-43 45 -18 87 -37 92 -41 14 -10 276 -81 281 -76 2 2 -26 12 -63 22 -229 61
-434 169 -576 305 -83 78 -104 90 -57 31z"/>
<path d="M10850 7853 c75 -24 189 -43 248 -42 51 1 46 3 -43 14 -55 8 -131 20
-168 29 -83 19 -98 19 -37 -1z"/>
<path d="M11228 7823 c7 -3 16 -2 19 1 4 3 -2 6 -13 5 -11 0 -14 -3 -6 -6z"/>
<path d="M7060 5519 c0 -13 31 -24 180 -65 69 -20 233 -69 365 -110 293 -90
398 -117 727 -189 431 -93 589 -143 835 -260 172 -82 283 -148 541 -321 117
-79 252 -166 300 -195 48 -29 161 -105 252 -170 91 -64 237 -163 325 -219 88
-56 180 -116 205 -132 l45 -28 -35 30 c-19 17 -89 65 -155 107 -216 137 -438
291 -525 364 -124 104 -369 286 -495 368 -117 77 -404 226 -545 284 -199 82
-304 111 -833 228 -409 90 -414 91 -777 199 -356 106 -410 120 -410 109z"/>
<path d="M10480 5337 c0 -21 175 -467 288 -735 42 -99 69 -141 57 -87 -10 44
-105 281 -203 505 -46 107 -96 222 -109 255 -24 59 -33 75 -33 62z"/>
<path d="M6842 12160 c-9 -15 -9 -21 1 -26 6 -4 9 -4 5 1 -4 4 -3 14 4 22 6 7
9 15 7 18 -3 2 -10 -4 -17 -15z"/>
<path d="M6838 9503 c6 -2 18 -2 25 0 6 3 1 5 -13 5 -14 0 -19 -2 -12 -5z"/>
<path d="M6790 9276 c0 -2 8 -10 18 -17 15 -13 16 -12 3 4 -13 16 -21 21 -21
13z"/>
<path d="M6850 9213 c0 -6 8 -17 18 -24 16 -13 16 -13 2 6 -8 11 -16 22 -17
24 -2 2 -3 0 -3 -6z"/>
<path d="M6992 9030 c0 -14 2 -19 5 -12 2 6 2 18 0 25 -3 6 -5 1 -5 -13z"/>
<path d="M6760 9010 c6 -11 13 -20 16 -20 2 0 0 9 -6 20 -6 11 -13 20 -16 20
-2 0 0 -9 6 -20z"/>
<path d="M6790 8947 c0 -11 9 -30 20 -44 25 -32 25 -27 0 23 -12 24 -19 32
-20 21z"/>
<path d="M6951 8929 c-14 -40 -14 -49 -1 -49 6 0 10 6 8 13 -1 6 2 22 6 35 4
13 6 26 3 28 -3 3 -10 -9 -16 -27z"/>
<path d="M7058 8875 c-3 -14 -1 -28 3 -31 5 -3 9 9 9 25 0 38 -6 40 -12 6z"/>
<path d="M6770 8855 c-6 -8 -10 -21 -8 -31 2 -11 7 -6 15 15 13 34 11 38 -7
16z"/>
<path d="M6836 8845 c6 -31 11 -41 18 -34 2 2 -2 18 -10 34 l-14 30 6 -30z"/>
<path d="M6482 8830 c0 -14 2 -19 5 -12 2 6 2 18 0 25 -3 6 -5 1 -5 -13z"/>
<path d="M6660 8809 c0 -5 9 -9 20 -9 11 0 20 2 20 4 0 2 -9 6 -20 9 -11 3
-20 1 -20 -4z"/>
<path d="M6551 8794 c0 -11 3 -14 6 -6 3 7 2 16 -1 19 -3 4 -6 -2 -5 -13z"/>
<path d="M9076 9635 c-9 -26 -7 -32 5 -12 6 10 9 21 6 23 -2 3 -7 -2 -11 -11z"/>
<path d="M1958 15343 c7 -3 16 -2 19 1 4 3 -2 6 -13 5 -11 0 -14 -3 -6 -6z"/>
<path d="M1816 15225 c-3 -9 -6 -22 -5 -28 0 -7 5 -1 10 12 5 13 8 26 5 28 -2
2 -6 -3 -10 -12z"/>
<path d="M17421 14005 c0 -5 6 -21 14 -35 8 -14 14 -20 14 -15 0 6 -6 21 -14
35 -8 14 -14 21 -14 15z"/>
<path d="M1340 10284 c-58 -25 -143 -56 -190 -71 -178 -54 -239 -101 -296
-230 -51 -117 -135 -253 -181 -294 -44 -38 -138 -82 -205 -96 -38 -9 -49 -7
-63 6 -16 15 -17 14 -11 -5 8 -27 0 -31 -138 -54 -109 -19 -146 -36 -233 -109
-24 -20 -30 -41 -13 -41 21 0 79 34 73 43 -3 6 -1 7 6 3 7 -5 38 9 74 32 63
41 134 62 272 82 120 18 204 50 248 95 21 22 46 54 54 70 29 56 145 250 190
316 l45 67 229 102 c209 94 280 130 254 129 -5 0 -57 -21 -115 -45z"/>
<path d="M314 9768 l-19 -23 23 19 c12 11 22 21 22 23 0 8 -8 2 -26 -19z"/>
<path d="M392 9750 c0 -19 2 -27 5 -17 2 9 2 25 0 35 -3 9 -5 1 -5 -18z"/>
<path d="M250 9698 c-26 -24 -32 -32 -15 -20 28 18 73 63 64 62 -2 -1 -24 -19
-49 -42z"/>
<path d="M381 9694 c0 -11 3 -14 6 -6 3 7 2 16 -1 19 -3 4 -6 -2 -5 -13z"/>
<path d="M10 9510 c-13 -8 -13 -10 2 -10 9 0 20 5 23 10 8 13 -5 13 -25 0z"/>
<path d="M2021 7853 c1 -106 4 -137 10 -108 12 58 11 255 -1 255 -6 0 -10 -55
-9 -147z"/>
<path d="M15591 1230 c-15 -53 -36 -128 -125 -435 -82 -282 -216 -769 -216
-784 0 -8 102 -11 345 -11 269 0 345 3 345 13 0 15 -46 192 -150 577 -46 168
-105 386 -131 485 -27 99 -51 184 -53 190 -2 5 -9 -10 -15 -35z"/>
<path d="M9307 479 c-100 -8 -209 -39 -280 -77 -117 -63 -197 -211 -197 -363
l0 -39 590 0 590 0 0 33 c0 50 -33 159 -65 213 -43 73 -117 142 -188 174 -112
50 -288 74 -450 59z"/>
<path d="M4380 227 l0 -228 83 3 c100 4 99 -13 11 222 -35 94 -64 175 -64 181
0 6 -7 20 -15 31 -13 17 -14 -6 -15 -209z"/>
<path d="M6022 425 c-36 -79 -150 -373 -153 -395 -4 -25 -3 -25 78 -28 l81 -3
7 93 c3 51 5 154 3 228 -3 122 -4 131 -16 105z"/>
<path d="M12290 435 c-134 -28 -245 -83 -340 -171 -92 -86 -190 -216 -190
-254 0 -7 219 -10 705 -10 l705 0 0 21 c0 33 -96 164 -172 234 -85 78 -215
147 -329 175 -99 23 -276 26 -379 5z"/>
<path d="M6826 383 c-10 -32 -42 -119 -72 -194 -30 -75 -54 -148 -54 -163 l0
-26 145 0 c142 0 145 0 145 22 0 11 -24 91 -54 177 -30 86 -60 175 -67 199 -7
23 -15 42 -19 42 -3 0 -14 -26 -24 -57z"/>
</g>
</svg>
